<?xml version="1.0" standalone="no"?>
<!DOCTYPE svg PUBLIC "-//W3C//DTD SVG 20010904//EN"
 "http://www.w3.org/TR/2001/REC-SVG-20010904/DTD/svg10.dtd">
<svg version="1.0" xmlns="http://www.w3.org/2000/svg"
 width="1024.000000pt" height="1024.000000pt"  viewBox="0 0 1024.000000 1024.000000"
 preserveAspectRatio="xMidYMid meet">

<g transform="translate(0.000000,1024.000000) scale(0.100000,-0.100000)"
fill="#6c5ce7" stroke="none">
<path d="M4970 8673 c-41 -25 -187 -115 -325 -198 -137 -84 -333 -203 -435
-265 -102 -62 -228 -139 -280 -170 -110 -66 -288 -175 -410 -250 -47 -29 -98
-61 -115 -70 -49 -29 -379 -230 -525 -320 -74 -46 -272 -168 -440 -270 -503
-308 -509 -312 -525 -346 -13 -28 -15 -231 -15 -1634 l0 -1603 34 -31 c28 -26
326 -212 359 -225 6 -2 58 -34 116 -71 58 -36 140 -86 181 -110 78 -45 471
-283 620 -375 47 -29 101 -62 120 -73 19 -11 193 -115 385 -232 193 -117 483
-292 645 -390 162 -97 333 -200 379 -229 46 -29 98 -61 115 -71 17 -9 69 -41
116 -69 110 -68 130 -67 263 18 54 33 100 61 102 61 2 0 48 28 102 62 96 60
398 244 458 278 39 22 369 225 415 255 36 23 566 344 1075 650 154 93 309 187
345 210 36 23 72 44 80 48 8 4 27 15 42 25 52 33 194 120 291 177 54 32 105
68 113 80 12 19 14 244 12 1640 l-3 1617 -36 32 c-20 17 -72 51 -115 75 -44
25 -117 68 -164 97 -47 29 -161 99 -255 155 -93 56 -309 188 -480 292 -170
105 -425 260 -565 345 -140 85 -316 192 -390 237 -74 46 -252 154 -395 241
-143 87 -278 170 -300 185 -22 14 -56 36 -75 47 -29 16 -158 94 -335 203 -52
32 -101 25 -185 -28z m225 -254 c55 -34 125 -76 155 -94 30 -17 105 -62 165
-100 61 -37 122 -75 137 -84 59 -35 412 -251 561 -343 87 -54 160 -98 162 -98
1 0 47 -27 100 -61 53 -33 176 -109 273 -168 98 -59 290 -176 427 -261 138
-84 345 -210 460 -280 308 -186 399 -243 407 -255 4 -5 8 -686 8 -1512 l0
-1502 -28 -18 c-15 -10 -36 -23 -47 -30 -11 -6 -110 -67 -220 -134 -366 -224
-707 -431 -1175 -714 -157 -95 -337 -204 -400 -244 -63 -39 -122 -74 -130 -78
-8 -3 -26 -14 -40 -23 -14 -10 -122 -76 -240 -147 -118 -72 -320 -194 -448
-272 -226 -137 -234 -140 -260 -127 -15 8 -167 99 -339 203 -953 574 -1247
752 -1331 805 -51 32 -95 58 -97 58 -2 0 -52 30 -112 67 -130 80 -652 397
-888 538 l-170 102 -2 1514 -3 1514 122 75 c67 41 127 77 133 79 5 2 39 23 75
46 73 47 175 110 400 247 85 53 205 126 265 163 61 38 124 76 140 85 48 28
339 205 477 291 70 43 142 87 160 97 18 11 92 55 163 99 72 44 207 126 300
183 94 57 238 144 320 195 314 193 400 245 410 245 6 0 56 -28 110 -61z"/>
<path d="M5032 8199 c-13 -5 -83 -46 -155 -91 -239 -148 -263 -163 -325 -198
l-61 -35 -1 -2701 0 -2701 43 -28 c23 -16 149 -93 280 -172 183 -110 245 -143
272 -143 35 0 89 32 690 400 110 67 290 177 400 243 110 66 260 157 332 201
249 152 808 490 1042 631 129 78 244 153 255 168 l21 28 3 1347 2 1347 -22 45
c-19 37 -38 54 -114 100 -50 30 -142 86 -205 124 -145 88 -282 171 -338 208
-25 15 -48 28 -53 28 -4 0 -9 -609 -10 -1352 l-3 -1353 -334 -3 c-261 -2 -336
1 -343 10 -4 7 -8 715 -8 1573 l0 1560 -266 159 c-147 88 -285 172 -308 186
-43 27 -49 31 -452 277 -261 158 -281 167 -342 142z m2598 -2344 l0 -85 -172
2 -173 3 -3 69 c-2 38 -1 75 2 83 4 10 42 13 176 13 l170 0 0 -85z m0 -760 l0
-85 -172 2 -173 3 -3 69 c-2 38 -1 75 2 83 4 10 42 13 176 13 l170 0 0 -85z
m-2 -773 l3 -82 -173 2 -173 3 -3 77 -3 77 43 4 c24 2 102 3 173 3 l130 -1 3
-83z m-475 -469 c96 -162 108 -185 103 -191 -3 -2 -33 -22 -68 -43 -56 -35
-63 -37 -73 -21 -42 61 -166 284 -161 289 13 14 112 71 123 72 6 1 41 -47 76
-106z m-660 -447 c48 -79 87 -147 87 -152 0 -5 -30 -26 -67 -47 -51 -29 -68
-35 -75 -25 -36 54 -168 278 -168 284 0 8 117 82 130 84 3 0 45 -65 93 -144z
m-673 -408 c47 -79 86 -146 88 -149 2 -4 -19 -19 -45 -34 -26 -16 -57 -34 -69
-42 -20 -13 -25 -7 -108 133 -48 81 -85 151 -84 155 4 11 108 77 123 78 6 1
49 -63 95 -141z m-672 -411 c45 -75 82 -141 82 -146 0 -11 -109 -81 -125 -81
-10 0 -180 276 -180 293 0 12 129 87 136 79 3 -4 43 -69 87 -145z"/>
<path d="M4195 7691 c-6 -5 -149 -94 -320 -196 -170 -103 -339 -207 -375 -230
-36 -23 -103 -64 -150 -92 -47 -28 -168 -101 -270 -164 -331 -202 -453 -276
-556 -338 -56 -34 -114 -71 -129 -83 -55 -43 -55 -40 -55 -638 l0 -550 940 0
940 0 0 145 0 145 -160 0 -160 0 0 85 0 85 160 0 160 0 0 165 0 165 -275 0
-275 0 0 85 0 85 275 0 275 0 0 165 0 165 -160 0 -160 0 0 85 0 85 160 0 160
0 0 420 c0 231 -4 420 -8 420 -4 0 -12 -4 -17 -9z"/>
<path d="M2340 4455 c0 -688 -2 -670 61 -718 19 -13 90 -58 159 -100 231 -138
883 -533 1095 -662 116 -70 242 -147 280 -170 39 -23 118 -72 178 -108 l107
-67 0 185 0 185 -240 0 -240 0 0 101 0 102 240 -5 240 -6 0 309 0 309 -240 0
-240 0 0 100 0 100 240 0 240 0 0 305 0 305 -244 0 -245 0 0 87 c0 48 4 93 11
100 8 10 63 13 244 13 l234 0 0 129 0 129 -940 1 -940 1 0 -625z"/>
</g>
</svg>
